<?xml version="1.0" encoding="utf-8"?>
<!-- Generator: Adobe Illustrator 25.4.1, SVG Export Plug-In . SVG Version: 6.00 Build 0)  -->
<svg version="1.1" id="Layer_1" xmlns="http://www.w3.org/2000/svg" xmlns:xlink="http://www.w3.org/1999/xlink" x="0px" y="0px"
	 viewBox="0 0 90 90" style="enable-background:new 0 0 90 90;" xml:space="preserve">
<style type="text/css">
	.st0{fill:none;stroke:#000000;stroke-miterlimit:10;}
	.st1{stroke:#000000;stroke-miterlimit:10;}
	.st2{fill:#FFFFFF;}
</style>
<g>
	<rect class="st0" width="90" height="90"/>
	<rect x="5" y="5" class="st1" width="80" height="80"/>
	<g>
		<polygon class="st2" points="46.83,33.21 46.76,32.68 46.87,32.39 47.01,31.79 46.62,31.69 46.17,31.69 45.57,32.36 45.24,32.75 
			44.9,33.28 44.5,34.02 44.16,34.8 43.94,35.5 43.65,35.82 43.13,36.13 42.8,36.46 42.64,36.94 42.46,37.79 42.46,38.57 
			42.43,39.2 42.68,39.94 42.57,40.41 42.1,40.86 41.72,41.19 41.4,41.75 41.32,42.56 41.29,43.45 41.13,44.57 40.91,45.42 
			40.44,46.16 39.95,46.79 39.91,47.15 39.95,47.48 39.95,48 39.77,48.18 39.46,48.07 39.39,47.82 39.1,47.33 38.61,46.12 
			38.36,45.6 38.02,44.82 37.76,44.3 37.51,43.63 37.21,43.12 36.99,42.45 36.84,41.68 36.74,40.9 36.66,40.27 35.89,39.49 
			35.62,38.9 35.33,38.68 34.95,38.68 34.69,38.9 34.48,39.31 34.17,40.05 33.92,40.9 33.63,41.61 33.59,42.07 33.32,42.85 
			33,43.72 32.74,44.15 32.74,44.78 32.26,45.53 31.97,46.16 31.7,46.79 31.55,47.3 31.1,48.15 30.67,48.92 30.32,49.7 30.03,50.08 
			29.74,50.48 29.47,50.55 29.33,50.26 29.36,49.97 29.36,49.41 29.4,48.7 29.47,48.04 29.36,47.22 29.33,46.45 29.33,45.67 
			29.15,44.97 29.08,44.22 29,43.3 28.9,42.56 28.9,41.93 28.86,41.39 28.86,40.68 28.8,39.94 28.8,39.42 28.7,38.97 28.52,38.32 
			28.66,37.49 28.8,36.94 28.62,36.42 28.34,35.99 28.12,35.61 27.34,35.5 26.96,35.61 26.78,35.9 26.44,36.17 26.4,36.49 
			26.4,36.98 26.75,37.45 26.93,37.97 26.96,38.53 27.18,39.09 27.25,39.67 27.29,40.05 27.49,40.76 27.67,41.61 27.7,42.35 
			27.81,43.12 27.99,43.94 27.96,44.46 28.12,44.78 28.12,45.53 28.3,46.3 28.37,47.04 28.37,47.82 28.52,48.6 28.44,49.37 
			28.44,49.97 28.52,50.78 28.37,51.49 28.44,52.07 28.52,52.59 28.81,52.97 29.15,52.97 29.48,52.84 29.75,52.48 30.04,52.07 
			30.37,51.63 30.68,50.96 31.31,50.4 31.59,49.86 31.88,49.19 32.04,48.6 32.78,46.86 33.14,45.92 33.39,45.31 33.63,44.46 
			33.92,43.72 34.26,43.3 34.62,43.3 34.87,43.76 35.11,43.83 35.22,44.46 35.22,45.31 35.54,45.78 35.65,46.45 36.18,47.3 
			36.32,48.15 36.7,48.7 37.1,49.45 37.58,50.11 37.95,50.75 38.36,51.11 38.58,51.49 38.96,51.85 39.66,51.99 40.44,51.96 
			41.05,51.63 41.43,51.29 41.61,50.82 42.1,50.55 42.46,49.74 42.77,49.52 42.84,49.12 43.09,48.52 43.27,47.82 43.69,47.01 
			43.98,46.3 44.16,45.63 44.32,44.93 44.36,44.08 44.54,43.12 44.86,42.42 44.86,41.89 45.01,41.08 45.06,40.41 45.24,40.02 
			45.35,39.42 45.53,38.82 45.42,38.39 45.88,37.49 46.2,36.35 46.2,35.9 46.53,35.12 46.73,34.43 46.94,33.91 47.06,33.66 
			47.05,33.66 		"/>
		<polygon class="st2" points="45.88,31.69 46.02,31.47 46.02,31.2 45.84,30.98 45.53,31.2 45.64,31.51 		"/>
		<polygon class="st2" points="56.05,53.44 56.34,53.65 56.57,53.62 56.57,53.37 56.34,53.08 		"/>
		<polygon class="st2" points="56.15,35.21 55.97,34.72 55.68,35.16 55.9,35.54 		"/>
		<polygon class="st2" points="53.19,45.71 53.16,45.38 52.83,45.15 52.58,45.56 52.94,45.82 		"/>
		<polygon class="st2" points="64,51.81 63.11,50.51 62.57,49.9 62.08,49.16 61.59,48.85 61.23,48.18 60.56,47.37 59.86,46.7 
			59.61,46.16 59.15,45.74 58.79,45.27 58.59,44.71 58.27,44.53 58.12,44.15 57.56,43.9 57.53,43.34 57.71,42.6 58.02,42.04 
			58.41,41.46 58.86,41.05 59.37,40.65 59.82,39.91 59.97,39.17 60.56,38.57 61.01,37.72 61.41,37.38 61.56,37.05 62.19,36.31 
			62.41,35.86 62.89,35.16 63.45,34.38 63.78,33.84 63.89,33.31 64.16,33.13 64.23,32.83 63.96,32.5 63.6,32.25 63.18,31.94 
			62.93,31.54 62.37,31.51 61.97,31.69 61.79,32.25 61.94,32.86 61.94,33.6 61.59,34.24 61.09,35.15 60.63,35.61 60.15,36.2 
			59.93,36.63 59.5,36.83 59.05,37.34 58.83,37.86 58.63,38.42 58.59,39.19 58.41,39.7 57.89,40.33 57.71,41.07 57.17,41.99 
			56.61,42.73 56.01,41.91 55.68,41.1 55.23,40.54 54.53,39.59 54.38,38.74 54.31,37.86 53.86,37.19 53.57,36.34 52.94,35.6 
			52.09,34.93 51.28,34.09 50.79,33.13 50.36,32.61 49.65,32.43 49.31,32.32 48.91,31.8 48.42,31.36 47.76,31.13 47.05,31.62 
			47.01,31.79 47.01,31.8 47.23,32.25 47.2,32.75 47.09,33.17 47.09,33.6 47.06,33.66 47.61,33.98 48.21,34.05 48.8,34.38 
			49.02,34.76 49.38,35.16 49.31,35.39 49.54,35.72 49.94,35.99 50.16,36.57 50.32,36.91 50.64,37.41 51.13,37.76 51.28,38.19 
			51.64,38.64 51.98,39.38 52.38,39.94 53.08,40.34 54.04,40.86 54.71,41.61 55.27,42.07 55.65,42.53 55.83,42.98 56.05,43.38 
			55.61,43.76 55.16,44.01 54.84,44.41 54.53,44.97 54.28,45.42 53.82,45.89 53.54,46.41 53.16,46.79 52.76,46.97 52.42,47.3 
			51.98,47.53 51.53,47.6 51.24,47.68 50.86,48.11 50.57,48.52 50.36,49.12 50.21,49.63 50.09,50.22 49.83,50.75 49.2,51.41 
			49.27,51.88 49.06,52.26 48.73,52.93 48.53,53.55 48.6,54.07 49.27,54.07 49.72,53.74 49.94,53.08 50.28,52.62 50.5,52.06 
			50.72,51.48 51.39,51.18 52.02,50.71 52.38,50.18 52.54,49.69 53.12,49.08 53.35,48.52 53.61,47.96 53.93,47.92 54.24,47.36 
			54.49,47.22 54.84,46.69 54.98,46.19 55.61,45.41 55.97,44.81 56.19,44.6 56.61,44.4 57.31,44.74 57.98,45.26 58.05,45.84 
			58.59,46.4 59.05,47.04 59.15,47.67 59.82,48.03 60.27,48.7 60.74,49.37 60.6,49.77 60.89,50.11 61.23,50.51 61.56,51.07 
			62.12,51.85 62.75,52.44 63.45,53 64.03,53.11 64.3,52.73 		"/>
	</g>
</g>
</svg>
